<?xml version="1.0" encoding="utf-8" ?>
<svg baseProfile="full" height="300mm" version="1.1" viewBox="0,0,200,300" width="200mm" xmlns="http://www.w3.org/2000/svg" xmlns:ev="http://www.w3.org/2001/xml-events" xmlns:xlink="http://www.w3.org/1999/xlink"><defs /><rect fill="#222222" height="300" width="200" x="0" y="0" /><text fill="#FFFFFF" style="font-size:12px; font-family:Arial; font-weight:bold;" x="10" y="20">超过10公里的活动</text><text fill="#FFFFFF" style="font-size:4px; font-family:Arial" x="10" y="280">ATHLETE</text><text fill="#FFFFFF" style="font-size:9px; font-family:Arial" x="10" y="290">Wu Yefei</text><text fill="#FFFFFF" style="font-size:4px; font-family:Arial" x="120" y="280">STATISTICS</text><text fill="#FFFFFF" style="font-size:3px; font-family:Arial" x="120" y="285">Number: 2</text><text fill="#FFFFFF" style="font-size:3px; font-family:Arial" x="120" y="290">Weekly: 1.0</text><text fill="#FFFFFF" style="font-size:3px; font-family:Arial" x="141" y="285">Total: 22.7 km</text><text fill="#FFFFFF" style="font-size:3px; font-family:Arial" x="141" y="290">Avg: 11.4 km</text><text fill="#FFFFFF" style="font-size:3px; font-family:Arial" x="167" y="285">Min: 10.9 km</text><text fill="#FFFFFF" style="font-size:3px; font-family:Arial" x="167" y="290">Max: 11.8 km</text><polyline fill="none" points="66.929806714179,71.53449554840336 66.60020345891826,70.40444213681621 67.80874872859567,71.2371132223052 72.80773143447004,73.31878724240232 75.38962360122241,70.8207777851494 77.58697863691486,70.28548905579373 81.87182095646858,70.9992072841269 89.56256358115934,70.88025428919354 90.82604272663593,70.88025428919354 90.93591047823429,72.9619292137213 90.82604272663593,74.56778912123991 90.93591047823429,75.87626524275402 90.66124109877273,85.39239249727689 91.04577822983265,89.19881252350751 90.82604272663593,90.80464068084257 90.27670396747999,91.756241069932 90.66124109877273,93.00521490769461 90.77110885060392,95.0868337493157 90.77110885060392,98.0010912643047 91.15564598189667,99.84479986171937 91.32044760952704,104.95958269119728 91.15564598189667,106.32748432847438 90.82604272663593,110.3122282885015 91.32044760952704,111.68012101162458 91.54018311295658,111.97748869360657 94.06714140390977,111.91801516577834 94.72634791466407,112.33432976977201 94.67141403863207,112.69117069075583 95.44048830121756,112.33432976977201 100.27466937969439,113.28590521484148 104.06510681589134,113.52379890379962 105.38351983739994,113.82116591813974 106.48219735524617,113.52379890379962 108.89928789413534,113.34537864354206 113.84333672467619,113.52379890379962 117.35910478141159,113.46432548807934 121.42421159730293,113.64274572237628 122.19328585988842,114.23747955739964 123.78636826039292,114.29695291735698 125.54425228899345,113.34537864354206 127.35707019339316,113.46432548807934 129.22482197359204,113.28590521484148 130.10376398800872,113.64274572237628 132.90539165842347,113.58327231527073 134.8830111902207,113.28590521484148 137.1902339779772,113.58327231527073 140.1566632760223,113.64274572237628 141.25534079386853,114.77273964090273 142.73855544254184,114.23747955739964 143.7273652087897,114.0590594522655 147.07833163812757,114.0590594522655 149.49542217724957,114.11853282502852 152.3519837234635,113.58327231527073 153.94506612443365,113.46432548807934 153.78026449680328,112.69117069075583 153.94506612443365,112.03696221689461 153.5605289931409,110.5501228388166 99.28585961367935,111.85854163381737 97.582909460878,111.50170035084011 95.55035605304874,111.14485891308868 94.06714140390977,110.84749092964921 94.94608341832645,109.89591265964555 94.78128179046325,108.29012182919541 94.67141403863207,104.95958269119728 94.5615462870337,102.28324681153754 94.5066124110017,101.03428708307911 94.67141403863207,98.2389893803047 94.72634791466407,94.72998517978704 94.45167853543535,91.51834107603645 93.9023397762794,90.98306583764497 92.19938962371089,90.5667404110427 90.38657171931118,91.10201592068188 86.21159715182148,91.04254088143352 82.2563580875285,90.74516561982455 76.7629704985302,90.80464068084257 74.84028484253213,91.10201592068188 72.69786368263885,90.62621548504103 69.45676500513218,90.15041477349587 67.47914547310211,87.11717875750037 67.20447609387338,83.84602932207054 67.31434384547174,80.75329423608491 67.4242115970701,78.31478335993597 67.4242115970701,75.75731295405421 67.4242115970701,73.19983458338538 67.20447609387338,71.17763674427988 67.20447609387338,69.86915313598001 67.09460834180936,62.61297892028233 66.984740590211,60.41232324769953 66.87487283837982,58.33061650756281 67.03967446624301,56.12994935747702 67.03967446624301,54.94039709086064 66.87487283837982,52.025986753753386 66.8199389623478,45.84026522736531 66.71007121074945,43.93695691996254 66.38046795548871,40.60615676472662 66.54526958311908,38.82179397979053 66.21566632762551,38.28648438799428 64.4028484232258,38.28648438799428 52.37232960341498,38.58387864881661 47.208545269444585,38.58387864881661 46.54933875892311,39.05970924178837 47.208545269444585,40.78459282987751 47.70295015256852,42.093122789636254 47.977619532262906,43.9964353715186 48.58189216721803,49.290000288165174 48.63682604278438,54.0482317598653 48.74669379461557,56.24890448944643 48.36215666332282,56.9626349186874 49.57070193300024,94.25418684567558 49.57070193300024,95.97895449498901 49.625635808799416,101.15323571045883 49.680569684598595,104.90010865521617 49.84537131246179,111.62064746237593 49.84537131246179,116.31904458912322 49.625635808799416,119.76848359924043 49.02136317407712,123.45579893694958 48.52695829118602,125.53734060883289 47.37334689730778,128.57043474545935 47.09867751784623,129.3435745970346 46.54933875892311,131.3061571062426 46.0,133.44715085957432 46.329603255493566,135.0528925131075 49.02136317407712,136.83704622462392 54.569684638874605,139.15644025697839 58.14038657187484,140.34587055409793 62.64496439485811,141.4163563492475 65.33672431344166,141.83265600400046 65.55645981687121,142.18948411144083 66.05086469999515,142.54631206416525 69.07222787407227,142.8436685728957 72.36826042737812,143.25996750441846 74.45574771100655,142.78419727965957 75.38962360122241,142.66525468055625 75.38962360122241,140.22692760202335 76.37843336723745,136.8965179482475 76.32349949120544,134.99342065589735 76.32349949120544,131.00879642128712 76.21363173960708,130.53301910171285 76.1586978638079,128.57043474545935 76.10376398800872,122.6826535439468 75.88402848434635,117.44903482572408 75.71922685671598,112.98853800655343 75.60935910488479,110.49064920766978 76.1586978638079,108.34959561971482 76.1586978638079,107.63590985006886 75.93896236037835,105.7922187417862 75.82909460854717,101.86692711291835 76.21363173960708,100.4990180467139 76.32349949120544,99.30953005020274 75.88402848434635,94.43261125334539 76.21363173960708,91.1614909558557 76.32349949120544,84.14340708171949 76.21363173960708,82.95389539649477 76.32349949120544,77.42264342540875 76.32349949120544,74.21093163551996 76.21363173960708,72.0697834637831 75.99389623617753,66.5979349927511 75.99389623617753,65.22996717767091 75.88402848434635,59.87702773290221 75.71922685671598,56.9626349186874 75.71922685671598,56.48681470140582 75.60935910488479,55.059352395066526 75.60935910488479,52.50180955621181 75.66429298068397,48.45730694534723 75.44455747725442,39.23814564314671 75.38962360122241,37.81065334676532 74.67548321490176,36.97794836101821 71.818921668455,36.97794836101821 67.03967446624301,37.09690626786323 65.28179043764248,37.09690626786323 65.11698880977929,37.87013224198017 65.39165818924084,39.535539559146855 65.55645981687121,45.72130858746823 65.55645981687121,47.86252546927426 65.44659206527285,49.82530270534335 65.55645981687121,54.345620311272796 66.1607324515935,56.72472484456375 66.1607324515935,59.282254529360216 66.21566632762551,62.018207698420156 66.38046795548871,64.45676696964074 66.38046795548871,66.12212035909761 66.43540183128789,69.98810627742205 66.43540183128789,71.1181602619472 65.88606307236478,73.61616881442023 65.94099694816396,74.27040789392777 65.88606307236478,76.17364588862984 65.8311291965656,77.9579275023425 66.05086469999515,79.50430176511873 65.94099694816396,85.33291704428848 66.21566632762551,88.84196139551932 67.03967446624301,89.43671318946872 67.53407934913412,87.89035762945423 67.25940996943973,83.9055048825685 67.53407934913412,82.77546849503415 67.4242115970701,79.62325351091567 67.20447609387338,72.84297650307417 67.09460834180936,71.59397200064268 67.20447609387338,69.98810627742205 67.20447609387338,68.38223741360707 67.20447609387338,66.30055087903747 67.09460834180936,63.1482726514223 67.03967446624301,61.83977624797262 66.71007121074945,58.62800350773614 66.87487283837982,56.78420236951206 67.03967446624301,55.832561452290975 66.65513733471744,55.35674058017321 67.09460834180936,54.0482317598653 67.03967446624301,52.32337603770429 66.87487283837982,50.06321477878373 66.87487283837982,46.55400470516179 66.65513733471744,42.9853011117666 66.60020345891826,38.762315153551754 67.4242115970701,38.16752665367676 67.5890132249333,38.345963248750195" stroke="#4dd2ff" stroke-linecap="round" stroke-linejoin="round" stroke-width="0.5"><title>2021-07-01 10.9km</title><desc>8817124670</desc></polyline><polyline fill="none" points="79.08550992421806,169.63804764451925 80.63275536359288,169.63804764451925 82.34006067598239,169.1179568945081 82.87359358579852,168.4822899606079 83.67389295110479,168.36671409977134 85.59461142751388,167.03759049472865 85.86137788253836,167.38431860570563 88.6357490150258,166.1129814600572 89.16928192507476,164.78385409031762 89.16928192507476,163.51251278963173 88.04886281397194,160.738670173625 88.84916217881255,159.40953382640146 90.02293458092026,158.3693386145751 90.76988065522164,156.173366479401 91.6768866025377,156.0 92.21041951258667,156.2311552974279 92.10371293057688,157.27135330467718 92.37047938560136,157.50250823260285 91.4101201472804,160.5653046889929 92.74395242263563,164.32154839776922 94.66467089904472,166.3441338193952 94.50461102603003,166.74865028681234 95.464970264351,167.32653059775475 95.67838342813775,168.0199864167953 95.94514988316223,167.73104656569194 96.7988025394734,168.59786580438958 96.95886241248809,169.58025980042294 97.91922165057622,170.0425624375348 99.73323354474269,169.75362332066288 100.21341316401958,170.33150144928368 99.89329341775738,170.85159140621545 98.82622759765945,171.4294687374495 96.53203608421609,170.27371365536237 95.73173671914265,170.27371365536237 94.93143735383637,170.67822812503437 92.37047938560136,173.16309821308823 92.10371293057688,176.63034583360422 92.95736558665521,177.61272991274018 96.05185646540485,178.36396397848148 97.01221570349298,178.82626151258592 99.83994012698531,180.84881006658543 100.05335329077207,181.88897589279804 100.96035923808813,183.04471410502447 100.74694607406855,186.2807721698773 100.90700594708323,186.8586382967187 101.22712569287978,186.8586382967187 100.96035923808813,188.3033017780399 101.76065860316157,192.34834557434078 102.13413164042868,193.15735186630627 103.36125733330846,194.0241434094496 103.62802378856577,195.98886741243768 103.78808366158046,198.58922995830653 104.80179619067349,199.74494391825283 105.65544884675182,201.47851171152433 102.72101784148254,205.9857703029411 102.13413164042868,206.67919243627694 101.22712569287978,206.9681181468186 101.81401189416647,207.31482886092272 101.97407176718116,211.417560844915 100.90700594708323,213.4978112358367 100.80029936507344,215.5780561902211 101.12041911110282,216.50260775804054 99.73323354474269,218.29392336501041 99.78658683574758,220.02745075937128 102.24083822220564,222.28103072801605 102.56095796823502,222.28103072801605 102.61431125923991,223.7256299162982 100.85365265584551,227.4815755370073 100.21341316401958,227.8860609313706 100.26676645479165,228.63724754721625 99.67988025373779,229.21508292324143 99.41311379871331,229.96626828506123 99.5198203807231,231.8153369249194 100.96035923808813,232.9710026436951 102.29419151344337,233.31770203227643 104.80179619067349,234.4733655701857 106.08227517502382,235.22454597009346 106.56245479383506,235.34011212270707 107.20269428589381,234.87784741207724 108.64323314325884,234.6467149561504 109.60359238134697,235.51346131996252 109.33682592632249,236.32242374139605 108.26976010622457,236.32242374139605 107.30940086813644,235.9179426334449 105.49538897396997,235.9179426334449 102.8277244232595,235.22454597009346 101.92071847617626,235.39789519261103 101.49389214813709,235.1089798010653 100.42682632803917,235.16676288767485 99.35976050770842,235.57124437723542 99.46646708995104,235.28232904849574 98.82622759765945,236.49577272479655 99.41311379871331,238.05591187643586 98.23934139637277,240.71391968574608 98.07928152359091,242.67852844996378 97.65245519531891,243.71861348004313 95.41161697311327,246.02990868221968 94.9847906450741,247.2433359773131 95.51832355489023,247.87894001277164 96.26526962919161,247.8211578486953 98.02592823258601,245.22095612465637 99.573173671728,244.58534996712115 100.16005987301469,241.86957248707768 101.60059872991405,240.42500622326043 102.7743711322546,240.3672235183185 101.65395202115178,239.84717898385134 102.50760467723012,240.3094408089528 104.05485011660494,240.48278892424423 107.09598770411685,240.54057162092067 107.68287390517071,240.3094408089528 109.01670618029311,241.46509419748327 109.97706541838124,244.18087305722293 111.89778389479034,246.02990868221968 112.69808325986378,246.31882011058042 114.56544844526798,246.2032555518672 116.59287350391969,246.7232959343819 118.7270051438827,244.6431323660654 120.16754400124773,244.75869715138106 121.1279032395687,245.27873847738374 122.35502893268131,244.58534996712115 123.42209475301206,244.58534996712115 123.36874146177433,243.94974330218975 124.16904082708061,242.38961570028914 124.3291007000953,241.3495289341081 125.23610664717853,241.0606157023576 125.82299284823239,241.75400728249224 125.71628626645543,242.33183313795598 123.84892108105123,244.35422032955103 122.24832235067151,245.39430317055667 120.11419071024284,245.8565617747372 119.2605380541645,246.78107817820273 118.67365185311064,248.3989793008077 116.43281363067217,249.90131311380537 114.35203528101556,249.09236448985757 114.40538857225329,249.32349275198067 113.92520895320922,249.0345824137912 111.36425098474137,249.0345824137912 110.77736478368752,248.57232565467712 108.37646668823436,247.99450432840968 106.77586795785464,248.2834150440758 105.60209555574693,249.78574907500297 104.37496986263432,255.6794936680817 105.22862251871265,256.71956171438796 106.82922124909237,257.93297271832125 106.98928112210706,258.7996937317075 105.76215542899445,261.1687263546046 104.96185606368817,261.6309758007992 103.84143695258535,263.13328464719234 103.84143695258535,263.94221900583943 104.1615566983819,264.0 104.90850277268328,263.13328464719234 107.78958048741333,260.76425786921754 108.26976010622457,260.93760153104085 109.81700554536656,258.7996937317075 109.92371212760918,258.5107868320192 109.12341276253574,257.7018469552859 108.96335288952105,256.83512474695453 107.52281403192319,255.44836725114146 107.8429337781854,254.98611421551323 109.39017921732739,254.1193890509894 111.25754440296441,254.92833256733138 114.2453286992386,258.0485355745186 116.59287350391969,257.12403225468006 117.87335248780437,255.91062001796672 118.94041830790229,255.8528384368983 119.63401109119877,256.1995278610848 120.00748412823305,256.48843559931265 118.88706501736306,258.3952240428771 116.96634654072113,259.7819764063461 116.48616692167707,259.66641380172223 116.80628666770644,258.3952240428771 117.07305312273093,258.5107868320192 117.28646628675051,257.87519128381973 118.62029856210575,256.9506877626409 118.83371172612533,257.23959522828227 117.98005907004699,257.41293965739897 118.40688539785333,257.9907541485736 118.24682552507147,257.41293965739897 118.83371172612533,257.18181374354754 118.7270051438827,257.0084692641394 117.71329261478968,257.41293965739897 117.76664590579458,257.8174098453019 116.69958008569665,259.0886005265638 116.64622679445893,260.01310156541876 118.24682552507147,259.14638187293895 120.00748412823305,257.3551581852371 120.32760387426242,256.5462171344552 118.99377159914002,255.6794936680817 117.65993932401761,256.0261831677635 116.48616692167707,257.18181374354754 115.31239451933652,257.8174098453019 114.83221490029246,257.8174098453019 113.39167604316026,257.0084692641394 111.31089769350365,254.23495246074162 109.2301193443127,254.1193890509894 108.10970023320988,254.63942426303402 107.62952061439864,255.3905856363126 108.2164068154525,256.3728725166875 109.17676605354063,257.12403225468006 109.33682592632249,259.7819764063461 107.30940086813644,261.28428874141537 106.93592783086933,261.28428874141537 105.81550871976651,262.844379319984 104.05485011660494,263.7688759981538 104.37496986263432,262.786598241888 105.60209555574693,261.3998511113459 107.25604757713154,259.9553202819661 107.36275415914133,259.26194455311634 107.04263441311195,257.5862840487971 105.9755685927812,257.18181374354754 104.6950896086637,255.332804017351 105.60209555574693,252.44371772382874 105.49538897396997,251.34586218366167 106.45574821182527,249.15014656161657 107.25604757713154,248.68788986973232 107.04263441311195,248.57232565467712 108.37646668823436,248.1678507703473 109.97706541838124,248.9768003335339 111.79107731278054,249.32349275198067 113.33832275215536,249.15014656161657 116.37946033966728,250.07465914060595 117.33981957798824,250.01687713578576 118.14011894306168,249.09236448985757 119.90077754622325,247.35890038515208 120.22089729248546,246.43438465264626 124.59586715511978,244.6431323660654 124.96934019215405,244.12309062469285 124.70257373689674,243.77639594190987 126.08975930325687,242.90965857403353 126.24981917650439,242.21626800030936 125.76963955699466,241.2339636538527 124.86263360991143,241.11839835712453 123.42209475301206,244.00752574723447 122.19496905966662,244.81647953775246 118.99377159914002,244.75869715138106 117.01969983172603,246.43438465264626 114.56544844526798,245.97212638397468 113.17826287914068,246.43438465264626 112.21790364081971,246.08769097639015 109.92371212760918,244.00752574723447 109.49688579933718,242.0429202626692 108.53652656148188,240.71391968574608 107.09598770411685,240.3094408089528 106.13562846602872,239.84717898385134 104.64173631742597,240.42500622326043 102.8277244232595,239.96274446538882 100.85365265584551,241.3495289341081 100.0,241.40731156786205 100.0,242.21626800030936 99.25305392593145,243.83417839952745 98.02592823258601,245.33652082609478 97.38568874052726,245.50986784673296 96.69209595723078,247.2433359773131 95.51832355489023,247.47446477616904 94.82473077205941,246.89664265303873 96.58538937522098,244.8742619198165 97.27898215851746,244.75869715138106 98.39940126938745,243.5452660692972 99.35976050770842,239.96274446538882 99.09299405291677,239.26935132499784 99.78658683574758,237.65143164922483 99.6265269627329,237.01581944839563 99.19970063469373,236.90025353909004 99.30640721670352,235.51346131996252 99.09299405291677,235.45567825838225 101.86736518517137,235.39789519261103 103.2011974605266,235.80237656482495 104.6950896086637,235.28232904849574 105.44203568273224,236.2646407384891 105.81550871976651,236.03350868524285 108.16305352421477,236.61133869271725 109.7102989635896,236.49577272479655 109.97706541838124,235.9179426334449 109.33682592632249,234.6467149561504 108.00299365120009,234.4733655701857 106.82922124909237,234.93563051562523 105.33532910072245,234.53114870312857 101.28047898388468,232.797652892943 99.78658683574758,231.23750343633583 100.16005987301469,229.85070135240676 100.42682632803917,228.521680421778 101.60059872991405,226.90373890270712 102.93443100526929,223.89898164273473 102.88107771449722,222.39659875945654 100.37347303703427,220.54750824149232 100.10670658177696,219.7385297890287 101.12041911110282,217.13823633815628 102.34754480421543,210.7819276965456 102.08077834919095,208.06603489030385 102.29419151344337,207.31482886092272 105.81550871976651,202.11415228975238 105.9755685927812,201.47851171152433 103.94814353459515,198.35808696498862 103.68137707957067,194.0241434094496 101.92071847617626,191.53933845990105 100.85365265584551,186.68527850264218 101.3338322751224,184.72053153137676 101.12041911110282,182.64020592166344 99.73323354474269,180.6754489633604 98.34604797861539,179.4619201835012 96.37197621143423,178.24838955292944 93.97107811574824,178.01724065165035 92.79730571364053,177.20821896818234 92.37047938560136,174.60778655752074 92.79730571364053,173.3942485244479 95.73173671914265,170.62044035625877 96.58538937522098,170.5626525831758 97.86586835957132,171.54504415328847 99.03964076167904,171.83398261963157 100.58688620105386,170.5048648060183 100.64023949182592,170.1003502482199 100.05335329077207,169.52247195178643 98.29269468761049,169.69583548477385 97.65245519531891,169.4068962421734 97.75916177756153,169.23353264614707 96.85215583024547,168.1933502771426 93.70431166072376,165.24615951417945 91.8369464755524,161.14318949065637 91.99700634833425,159.40953382640146 92.63724584062584,157.1557758153649 91.89029976632446,156.173366479401 91.14335369225591,156.11557765724137 90.55646749120206,156.46231052768417 89.75616812612861,158.6004932236974 88.42233585100621,159.64068813319318 88.1555693957489,161.3743432937772 89.06257534283213,163.57030107476749 89.16928192507476,164.95721865579253 88.52904243278317,166.286345735949 86.98179699364118,166.575286111678 81.91323434794322,169.1179568945081 78.8720967604313,169.52247195178643 75.88431246369146,168.54007788462332 74.92395322583616,167.49989460920915 76.95137828378938,165.93961714638863 77.21814473904669,166.05519335967256 77.32485132105649,165.5928884058958 76.52455195575021,166.51749804493738 74.49712689756416,167.73104656569194 74.01694727828726,169.81141115247738 73.75018082326278,169.98477462254232 74.44377360655926,171.54504415328847 74.01694727828726,172.46964687597938" stroke="#4dd2ff" stroke-linecap="round" stroke-linejoin="round" stroke-width="0.5"><title>2019-11-24 11.8km</title><desc>8822633749</desc></polyline></svg>
