<?xml version="1.0" encoding="utf-8" ?>
<svg baseProfile="full" height="200mm" version="1.1" viewBox="0,0,200,200" width="200mm" xmlns="http://www.w3.org/2000/svg" xmlns:ev="http://www.w3.org/2001/xml-events" xmlns:xlink="http://www.w3.org/1999/xlink"><defs /><rect fill="#1a1a1a" height="200" width="200" x="0" y="0" /><text alignment-baseline="middle" fill="#e1ed5e" style="dominant-baseline: central; font-size:9.0px; font-family:Arial;" text-anchor="middle" x="100.0" y="100.0">2021</text><line stroke="#e1ed5e" stroke-width="0.3" x1="100.0" x2="100.0" y1="15.0" y2="10.0" /><path d="M 100.0 14.0 a86.0,86.0 0 0,1 42.46469731375804,11.215312516191453" fill="none" id="id37" stroke="none" /><text fill="#e1ed5e" style="font-size:6.75px; font-family:Arial;" text-anchor="middle"><textPath startOffset="22.20632615414155" xlink:href="#id37">January</textPath></text><path d="M 105.36241919743992 79.69619591428918 l 4.134561072586631 -15.654747401747828 a37.1915320916669,37.1915320916669 0 0,0 0.6175602734937307,0.16880255122031826 l -4.403419235304072 15.581258309701216" fill="#ff4906" stroke="none" /><line stroke="#e1ed5e" stroke-width="0.3" x1="143.23703022742887" x2="145.7803849466894" y1="26.81831364943548" y2="22.513508569990506" /><path d="M 143.74570117128098 25.957352633546492 a86.0,86.0 0 0,1 28.547481713284135,27.462654790039103" fill="none" id="id38" stroke="none" /><text fill="#e1ed5e" style="font-size:6.75px; font-family:Arial;" text-anchor="middle"><textPath startOffset="19.985693538727396" xlink:href="#id38">February</textPath></text><path d="M 115.4437574822437 85.77008943001954 l 20.419460909423425 -18.814534154812 a48.76582574486231,48.76582574486231 0 0,0 0.5634922732190996,0.6222222421349869 l -20.74029682325856 18.460259125407465" fill="#feff18" stroke="none" /><path d="M 115.9244219780498 86.31012108654704 l 47.773265934149435 -41.069636740358895 a84.0,84.0 0 0,0 0.9331575460515311,1.1045642014835737 l -48.47313409368808 40.241213589246215" fill="#4dd2ff" stroke="none" /><line stroke="#e1ed5e" stroke-width="0.3" x1="172.23445277983987" x2="176.4835382374775" y1="55.19839476539836" y2="52.563006222186495" /><path d="M 173.08426987136738 54.67131705675599 a86.0,86.0 0 0,1 12.851231095245387,41.99856678651699" fill="none" id="id39" stroke="none" /><text fill="#e1ed5e" style="font-size:6.75px; font-family:Arial;" text-anchor="middle"><textPath startOffset="22.20632615414155" xlink:href="#id39">March</textPath></text><line stroke="#e1ed5e" stroke-width="0.3" x1="184.98032266829074" x2="189.97916517819016" y1="98.17113171792111" y2="98.06355123074" /><path d="M 185.9800911702706 98.14961562048488 a86.0,86.0 0 0,1 -9.607161424134198,41.387399972396054" fill="none" id="id40" stroke="none" /><text fill="#e1ed5e" style="font-size:6.75px; font-family:Arial;" text-anchor="middle"><textPath startOffset="21.466115282336823" xlink:href="#id40">April</textPath></text><path d="M 120.92983693683757 101.71520430193887 l 36.3670959612018 2.980290750946577 a57.489009326253814,57.489009326253814 0 0,0 -0.08931438756666722,0.9855768243502941 l -36.310406977358056 -3.6058489638454416" fill="#85ff25" stroke="none" /><path d="M 120.13307415673323 105.97154293290107 l 11.511893402116796 3.4144694026635114 a33.007593056205124,33.007593056205124 0 0,0 -0.16625331663614187,0.5433254581194344 l -11.451413312974521 -3.612121833335003" fill="#ff0000" stroke="none" /><path d="M 120.02730092923936 106.31721596034902 l 36.10434912133947 11.38840282638132 a58.857888800242094,58.857888800242094 0 0,0 -0.3130896318005282,0.9635908054527542 l -35.90296723852269 -12.00819253181187" fill="#73ff27" stroke="none" /><path d="M 119.41010516605496 108.01547362559984 l 17.842836227091816 7.368264208803348 a40.30435500288866,40.30435500288866 0 0,0 -0.27032518361112967,0.6389688812883831 l -17.71336006228838 -7.674307615757894" fill="#ff7d0b" stroke="none" /><path d="M 119.12269723197855 108.67885076344098 l 19.292622985257285 8.755971696522813 a42.18660760956285,42.18660760956285 0 0,0 -0.30580345274254245,0.6586734316551353 l -19.139044915674912 -9.08676519545678" fill="#ff9b0e" stroke="none" /><line stroke="#e1ed5e" stroke-width="0.3" x1="174.80103733775053" x2="179.2010983576182" y1="140.37084112569926" y2="142.7455964860345" /><path d="M 175.68104954172406 140.8457921977663 a86.0,86.0 0 0,1 -30.038265399797805,32.042727171017184" fill="none" id="id41" stroke="none" /><text fill="#e1ed5e" style="font-size:6.75px; font-family:Arial;" text-anchor="middle"><textPath startOffset="22.206326154141568" xlink:href="#id41">May</textPath></text><path d="M 116.498646956653 112.99209946851258 l 13.992417650871403 11.018532756214046 a38.809992021788766,38.809992021788766 0 0,0 -0.41782114425811734,0.5212961203998466 l -13.80067859455843 -11.257756710192144" fill="#ff6409" stroke="none" /><path d="M 111.1453310114006 117.79835938074945 l 15.15487833054779 24.201342304029556 a49.554777297862394,49.554777297862394 0 0,0 -0.726852483355421,0.44649216135746783 l -14.73604664726006 -24.458622932215402" fill="#f2ff19" stroke="none" /><line stroke="#e1ed5e" stroke-width="0.3" x1="143.8653032363475" x2="146.44561519142675" y1="172.8068346515853" y2="177.08958963109032" /><path d="M 144.38136562736335 173.6633856474863 a86.0,86.0 0 0,1 -40.68145358897372,12.25698825130547" fill="none" id="id42" stroke="none" /><text fill="#e1ed5e" style="font-size:6.75px; font-family:Arial;" text-anchor="middle"><textPath startOffset="21.466115282336833" xlink:href="#id42">June</textPath></text><path d="M 107.93186726928326 119.44442032107085 l 5.695390127054201 13.96185233101183 a36.078819224737956,36.078819224737956 0 0,0 -0.5770530942326196,0.22962133521377212 l -5.454215956779715 -14.057820510631672" fill="#ff3605" stroke="none" /><path d="M 101.26447882468166 120.96189622390904 l 2.018560298246944 33.46268096202222 a54.523508212055354,54.523508212055354 0 0,0 -0.9373160484051243,0.04844853329712499 l -1.4422561814283401 -33.492469302081545" fill="#acff20" stroke="none" /><path d="M 100.90346689309514 120.98055641714683 l 1.284921854946394 29.838808345231573 a50.86646125065339,50.86646125065339 0 0,0 -0.875096058675761,0.030140077652055702 l -0.7711054445959808 -29.856505221309725" fill="#dfff1b" stroke="none" /><line stroke="#e1ed5e" stroke-width="0.3" x1="102.19456741930631" x2="102.32365962044197" y1="184.97166512339345" y2="189.96999836594603" /><path d="M 102.22038585953345 185.97133177190398 a86.0,86.0 0 0,1 -42.740103519485714,-10.115201625700543" fill="none" id="id43" stroke="none" /><text fill="#e1ed5e" style="font-size:6.75px; font-family:Arial;" text-anchor="middle"><textPath startOffset="22.20632615414155" xlink:href="#id43">July</textPath></text><path d="M 100.54218724476979 120.99299961872073 l 0.9749794235641382 37.75032124894941 a58.76290957110237,58.76290957110237 0 0,0 -1.0113944884851596,0.017412073330898607 l -0.32502524518631076 -37.761510799559474" fill="#74ff27" stroke="none" /><line stroke="#e1ed5e" stroke-width="0.3" x1="58.666819895761336" x2="56.23545636021788" y1="174.27360380694188" y2="178.64263932499728" /><path d="M 58.180547188652646 175.14741091055294 a86.0,86.0 0 0,1 -31.652253787137756,-30.449443065178592" fill="none" id="id44" stroke="none" /><text fill="#e1ed5e" style="font-size:6.75px; font-family:Arial;" text-anchor="middle"><textPath startOffset="22.20632615414155" xlink:href="#id44">August</textPath></text><line stroke="#e1ed5e" stroke-width="0.3" x1="26.63291911575756" x2="22.317208475507996" y1="142.92168965132927" y2="145.44649492493687" /><path d="M 25.769776987707644 143.4266507060508 a86.0,86.0 0 0,1 -11.730757126820373,-40.83630448921669" fill="none" id="id45" stroke="none" /><text fill="#e1ed5e" style="font-size:6.75px; font-family:Arial;" text-anchor="middle"><textPath startOffset="21.46611528233685" xlink:href="#id45">September</textPath></text><line stroke="#e1ed5e" stroke-width="0.3" x1="15.007084014347285" x2="10.007500721073583" y1="101.09737516637583" y2="101.16192664675087" /><path d="M 14.007167355692545 101.11028546245083 a86.0,86.0 0 0,1 10.666146001902534,-42.60595125391555" fill="none" id="id46" stroke="none" /><text fill="#e1ed5e" style="font-size:6.75px; font-family:Arial;" text-anchor="middle"><textPath startOffset="22.20632615414155" xlink:href="#id46">October</textPath></text><path d="M 79.00019446554 99.90962569577889 l -46.76505154682988 -0.2012570539510119 a67.76548460755454,67.76548460755454 0 0,0 0.015060049253714925,-1.1664174114567691 l 46.754658490458446 1.0062107234682531" fill="#34ff60" stroke="none" /><path d="M 79.08570108090925 98.10471618934814 l -17.406238710840288 -1.577378355383639 a38.477564719799716,38.477564719799716 0 0,0 0.06545377183520558,-0.6591105499340899 l 17.376507813322853 1.8767644360221591" fill="#ff5e08" stroke="none" /><line stroke="#e1ed5e" stroke-width="0.3" x1="26.266209847984243" x2="21.928928074336255" y1="57.711370442889674" y2="55.22380399835377" /><path d="M 25.398753493254645 57.213857153982495 a86.0,86.0 0 0,1 29.58750427330803,-30.492523968695096" fill="none" id="id47" stroke="none" /><text fill="#e1ed5e" style="font-size:6.75px; font-family:Arial;" text-anchor="middle"><textPath startOffset="21.46611528233685" xlink:href="#id47">November</textPath></text><line stroke="#e1ed5e" stroke-width="0.3" x1="56.762969772571076" x2="54.21961505331055" y1="26.818313649435495" y2="22.513508569990535" /><path d="M 56.25429882871897 25.957352633546506 a86.0,86.0 0 0,1 42.265352541879196,-11.944610805530505" fill="none" id="id48" stroke="none" /><text fill="#e1ed5e" style="font-size:6.75px; font-family:Arial;" text-anchor="middle"><textPath startOffset="22.20632615414155" xlink:href="#id48">December</textPath></text></svg>