<?xml version="1.0" encoding="utf-8" ?>
<svg baseProfile="full" height="200mm" version="1.1" viewBox="0,0,200,200" width="200mm" xmlns="http://www.w3.org/2000/svg" xmlns:ev="http://www.w3.org/2001/xml-events" xmlns:xlink="http://www.w3.org/1999/xlink"><defs /><rect fill="#1a1a1a" height="200" width="200" x="0" y="0" /><text alignment-baseline="middle" fill="#e1ed5e" style="dominant-baseline: central; font-size:9.0px; font-family:Arial;" text-anchor="middle" x="100.0" y="100.0">2019</text><line stroke="#e1ed5e" stroke-width="0.3" x1="100.0" x2="100.0" y1="15.0" y2="10.0" /><path d="M 100.0 14.0 a86.0,86.0 0 0,1 42.46469731375804,11.215312516191453" fill="none" id="id13" stroke="none" /><text fill="#e1ed5e" style="font-size:6.75px; font-family:Arial;" text-anchor="middle"><textPath startOffset="22.20632615414155" xlink:href="#id13">January</textPath></text><path d="M 101.08401301168833 79.027996857942 l 0.5747292120295817 -11.11907579572707 a32.133919355657454,32.133919355657454 0 0,0 0.5521494106213607,0.03330716030331564 l -0.7660406714905543 11.10753536604345" fill="#ff4e07" stroke="none" /><path d="M 101.80526077348638 79.07773832637324 l 1.3114021031985368 -15.198634106182968 a36.2551058393543,36.2551058393543 0 0,0 0.6213000764889226,0.058999928600215044 l -1.5728273067777037 15.173808633067575" fill="#ff8b0c" stroke="none" /><path d="M 102.16513564639614 79.11191278185805 l 2.0025095929205663 -19.319156793577527 a40.422663666051875,40.422663666051875 0 0,0 0.6914841296034985,0.07769629890756054 l -2.3347604260337897 19.281824541199367" fill="#ffc612" stroke="none" /><path d="M 102.88285421437855 79.19881850522331 l 2.4839794633510732 -17.92310807419784 a39.09441784124943,39.09441784124943 0 0,0 0.6657798339101992,0.09811864089284142 l -2.792128277689928 17.87769494914403" fill="#ffb310" stroke="none" /><path d="M 103.2404852339499 79.25152402106235 l 1.7493981520697766 -11.201206891961045 a32.33699385776409,32.33699385776409 0 0,0 0.5492219652538589,0.09062633018227714 l -1.9419493234625105 11.169434298839143" fill="#ff5107" stroke="none" /><path d="M 107.76421540070413 80.48803036053334 l 10.688588955450811 -26.86110732690144 a49.9096008392697,49.9096008392697 0 0,0 0.7955023077765964,0.32450536521548434 l -11.149375132815795 26.67314107550238" fill="#bbff1f" stroke="none" /><path d="M 109.73455568895987 81.39251694778311 l 9.57041611394086 -18.293732280435076 a41.64590771417453,41.64590771417453 0 0,0 0.6323335222137794,0.33777066846993464 l -9.88389468268295 18.12628288546339" fill="#ffd714" stroke="none" /><path d="M 110.05341064243156 81.56283822128135 l 9.022705975982161 -16.54693075590513 a39.84701940811181,39.84701940811181 0 0,0 0.5993673120619817,0.33354726024127285 l -9.306197377116177 16.389168098103678" fill="#ffbe11" stroke="none" /><line stroke="#e1ed5e" stroke-width="0.3" x1="143.23703022742887" x2="145.7803849466894" y1="26.81831364943548" y2="22.513508569990506" /><path d="M 143.74570117128098 25.957352633546492 a86.0,86.0 0 0,1 28.547481713284135,27.462654790039103" fill="none" id="id14" stroke="none" /><text fill="#e1ed5e" style="font-size:6.75px; font-family:Arial;" text-anchor="middle"><textPath startOffset="19.985693538727396" xlink:href="#id14">February</textPath></text><path d="M 117.65298651832404 88.62581576622439 l 5.167842429711574 -3.3297477356393834 a27.1476674732229,27.1476674732229 0 0,0 0.24972286581514047,0.395001602643609 l -5.224392891772671 3.240298485281568" fill="#ff0000" stroke="none" /><line stroke="#e1ed5e" stroke-width="0.3" x1="172.23445277983987" x2="176.4835382374775" y1="55.19839476539836" y2="52.563006222186495" /><path d="M 173.08426987136738 54.67131705675599 a86.0,86.0 0 0,1 12.851231095245387,41.99856678651699" fill="none" id="id15" stroke="none" /><text fill="#e1ed5e" style="font-size:6.75px; font-family:Arial;" text-anchor="middle"><textPath startOffset="22.20632615414155" xlink:href="#id15">March</textPath></text><path d="M 119.7369772167798 92.82701384747503 l 16.71509802515165 -6.074748192472814 a38.78474255063537,38.78474255063537 0 0,0 0.22263720124113254,0.6294253485566292 l -16.817188307202592 5.7861252174895705" fill="#ffaf10" stroke="none" /><path d="M 120.91429891909075 98.10471618934814 l 17.48443741341676 -1.5844648341406227 a38.55608385928696,38.55608385928696 0 0,0 0.05420896561163307,0.6614866867367272 l -17.509120862847887 1.2832642301961268" fill="#ffac0f" stroke="none" /><line stroke="#e1ed5e" stroke-width="0.3" x1="184.98032266829074" x2="189.97916517819016" y1="98.17113171792111" y2="98.06355123074" /><path d="M 185.9800911702706 98.14961562048488 a86.0,86.0 0 0,1 -9.607161424134198,41.387399972396054" fill="none" id="id16" stroke="none" /><text fill="#e1ed5e" style="font-size:6.75px; font-family:Arial;" text-anchor="middle"><textPath startOffset="21.466115282336823" xlink:href="#id16">April</textPath></text><line stroke="#e1ed5e" stroke-width="0.3" x1="174.80103733775053" x2="179.2010983576182" y1="140.37084112569926" y2="142.7455964860345" /><path d="M 175.68104954172406 140.8457921977663 a86.0,86.0 0 0,1 -30.038265399797805,32.042727171017184" fill="none" id="id17" stroke="none" /><text fill="#e1ed5e" style="font-size:6.75px; font-family:Arial;" text-anchor="middle"><textPath startOffset="22.206326154141568" xlink:href="#id17">May</textPath></text><line stroke="#e1ed5e" stroke-width="0.3" x1="143.8653032363475" x2="146.44561519142675" y1="172.8068346515853" y2="177.08958963109032" /><path d="M 144.38136562736335 173.6633856474863 a86.0,86.0 0 0,1 -40.68145358897372,12.25698825130547" fill="none" id="id18" stroke="none" /><text fill="#e1ed5e" style="font-size:6.75px; font-family:Arial;" text-anchor="middle"><textPath startOffset="21.466115282336833" xlink:href="#id18">June</textPath></text><path d="M 109.2508944713604 118.85261126421891 l 8.925385832412294 18.189249699320296 a41.26107886766274,41.26107886766274 0 0,0 -0.6403077575054565,0.3073866350409624 l -8.610965406906605 -18.34019061086082" fill="#ffd213" stroke="none" /><line stroke="#e1ed5e" stroke-width="0.3" x1="102.19456741930631" x2="102.32365962044197" y1="184.97166512339345" y2="189.96999836594603" /><path d="M 102.22038585953345 185.97133177190398 a86.0,86.0 0 0,1 -42.740103519485714,-10.115201625700543" fill="none" id="id19" stroke="none" /><text fill="#e1ed5e" style="font-size:6.75px; font-family:Arial;" text-anchor="middle"><textPath startOffset="22.20632615414155" xlink:href="#id19">July</textPath></text><line stroke="#e1ed5e" stroke-width="0.3" x1="58.666819895761336" x2="56.23545636021788" y1="174.27360380694188" y2="178.64263932499728" /><path d="M 58.180547188652646 175.14741091055294 a86.0,86.0 0 0,1 -31.652253787137756,-30.449443065178592" fill="none" id="id20" stroke="none" /><text fill="#e1ed5e" style="font-size:6.75px; font-family:Arial;" text-anchor="middle"><textPath startOffset="22.20632615414155" xlink:href="#id20">August</textPath></text><line stroke="#e1ed5e" stroke-width="0.3" x1="26.63291911575756" x2="22.317208475507996" y1="142.92168965132927" y2="145.44649492493687" /><path d="M 25.769776987707644 143.4266507060508 a86.0,86.0 0 0,1 -11.730757126820373,-40.83630448921669" fill="none" id="id21" stroke="none" /><text fill="#e1ed5e" style="font-size:6.75px; font-family:Arial;" text-anchor="middle"><textPath startOffset="21.46611528233685" xlink:href="#id21">September</textPath></text><line stroke="#e1ed5e" stroke-width="0.3" x1="15.007084014347285" x2="10.007500721073583" y1="101.09737516637583" y2="101.16192664675087" /><path d="M 14.007167355692545 101.11028546245083 a86.0,86.0 0 0,1 10.666146001902534,-42.60595125391555" fill="none" id="id22" stroke="none" /><text fill="#e1ed5e" style="font-size:6.75px; font-family:Arial;" text-anchor="middle"><textPath startOffset="22.20632615414155" xlink:href="#id22">October</textPath></text><line stroke="#e1ed5e" stroke-width="0.3" x1="26.266209847984243" x2="21.928928074336255" y1="57.711370442889674" y2="55.22380399835377" /><path d="M 25.398753493254645 57.213857153982495 a86.0,86.0 0 0,1 29.58750427330803,-30.492523968695096" fill="none" id="id23" stroke="none" /><text fill="#e1ed5e" style="font-size:6.75px; font-family:Arial;" text-anchor="middle"><textPath startOffset="21.46611528233685" xlink:href="#id23">November</textPath></text><path d="M 85.31137513191541 84.99185889309783 l -13.843703968593 -14.144840954735242 a40.79203539823009,40.79203539823009 0 0,0 0.5060480356378066,-0.4868178093422316 l 13.598172689342766 14.381041850839788" fill="#ffcb12" stroke="none" /><path d="M 87.22198572758235 83.33499621200491 l -38.334042817252964 -49.99501136398527 a84.0,84.0 0 0,0 1.1550153849664402,-0.8699336419765826 l 37.467781278528136 50.64746159546771" fill="#4dd2ff" stroke="none" /><line stroke="#e1ed5e" stroke-width="0.3" x1="56.762969772571076" x2="54.21961505331055" y1="26.818313649435495" y2="22.513508569990535" /><path d="M 56.25429882871897 25.957352633546506 a86.0,86.0 0 0,1 42.265352541879196,-11.944610805530505" fill="none" id="id24" stroke="none" /><text fill="#e1ed5e" style="font-size:6.75px; font-family:Arial;" text-anchor="middle"><textPath startOffset="22.20632615414155" xlink:href="#id24">December</textPath></text><path d="M 96.40284397218896 79.31037775812273 l -7.204568080101098 -41.4382336603524 a63.05987410954501,63.05987410954501 0 0,0 1.0710293028301594,-0.1767290119001612 l 6.490209571132054 41.55610893519219" fill="#31ff3c" stroke="none" /><path d="M 98.91598698831166 79.02799685794201 l -1.4483924509968653 -28.021518843145202 a49.05892654698049,49.05892654698049 0 0,0 0.8437181464562268,-0.036332278194676014 l 0.9658334721513143 28.042298847864068" fill="#c6ff1e" stroke="none" /></svg>