<?xml version="1.0" encoding="utf-8" ?>
<svg baseProfile="full" height="200mm" version="1.1" viewBox="0,0,200,200" width="200mm" xmlns="http://www.w3.org/2000/svg" xmlns:ev="http://www.w3.org/2001/xml-events" xmlns:xlink="http://www.w3.org/1999/xlink"><defs /><rect fill="#1a1a1a" height="200" width="200" x="0" y="0" /><text alignment-baseline="middle" fill="#e1ed5e" style="dominant-baseline: central; font-size:9.0px; font-family:Arial;" text-anchor="middle" x="100.0" y="100.0">2020</text><line stroke="#e1ed5e" stroke-width="0.3" x1="100.0" x2="100.0" y1="15.0" y2="10.0" /><path d="M 100.0 14.0 a86.0,86.0 0 0,1 42.35913384403234,11.155469271406648" fill="none" id="id25" stroke="none" /><text fill="#e1ed5e" style="font-size:6.75px; font-family:Arial;" text-anchor="middle"><textPath startOffset="22.145653131862478" xlink:href="#id25">January</textPath></text><path d="M 100.0 79.0 l 0.0 -25.7398773006135 a46.7398773006135,46.7398773006135 0 0,0 0.8023521464368931,0.00688722818700608 l -0.44185922158803836 25.73608447062093" fill="#ebff1a" stroke="none" /><path d="M 101.44090949804482 79.04949213459386 l 1.4707548043291787 -21.384452068636428 a42.434969325153375,42.434969325153375 0 0,0 0.7263068419629528,0.05622074305343658 l -1.837630641067365 21.356053558587938" fill="#ffd914" stroke="none" /><path d="M 102.15924093988457 79.11130261209362 l 4.020427148803476 -38.89398562717536 a60.10122699386503,60.10122699386503 0 0,0 1.025338661982996,0.11489133572698218 l -4.687501712387268 38.819238530941405" fill="#49ff2c" stroke="none" /><path d="M 109.71004243097381 81.37971332152246 l 17.16774080989001 -32.9214066544394 a58.12883435582822,58.12883435582822 0 0,0 0.8808212008245248,0.46898767698761884 l -17.730350826501095 32.62184850972921" fill="#5fff29" stroke="none" /><path d="M 110.34350942703115 81.72400993836675 l 29.552884077231866 -52.21711446180932 a81.0,81.0 0 0,0 1.2042290525384671,0.6952619676490521 l -30.44490559763073 51.70210559688409" fill="#49f1ff" stroke="none" /><line stroke="#e1ed5e" stroke-width="0.3" x1="143.13028292997686" x2="145.6673583964461" y1="26.7553504044142" y2="22.446841604673864" /><path d="M 143.63769802327073 25.89364864446614 a86.0,86.0 0 0,1 29.32050498858742,28.57503671076993" fill="none" id="id26" stroke="none" /><text fill="#e1ed5e" style="font-size:6.75px; font-family:Arial;" text-anchor="middle"><textPath startOffset="20.669276256404974" xlink:href="#id26">February</textPath></text><line stroke="#e1ed5e" stroke-width="0.3" x1="172.87174338648825" x2="177.1583165268699" y1="56.24261187166439" y2="53.66864786411523" /><path d="M 173.72905801456457 55.72781907015455 a86.0,86.0 0 0,1 12.242430191666344,42.057860355516425" fill="none" id="id27" stroke="none" /><text fill="#e1ed5e" style="font-size:6.75px; font-family:Arial;" text-anchor="middle"><textPath startOffset="22.145653131862474" xlink:href="#id27">March</textPath></text><line stroke="#e1ed5e" stroke-width="0.3" x1="184.99686870605535" x2="189.99668451229388" y1="99.2704041080226" y2="99.22748670261217" /><path d="M 185.99683186730306 99.26182062694052 a86.0,86.0 0 0,1 -10.086455211305974,41.156179273409016" fill="none" id="id28" stroke="none" /><text fill="#e1ed5e" style="font-size:6.75px; font-family:Arial;" text-anchor="middle"><textPath startOffset="21.40746469413373" xlink:href="#id28">April</textPath></text><line stroke="#e1ed5e" stroke-width="0.3" x1="174.33088141563837" x2="178.70328620479359" y1="141.23008692659167" y2="143.65538615756765" /><path d="M 175.20536237346943 141.71514677278685 a86.0,86.0 0 0,1 -30.301960400862466,31.631185727798858" fill="none" id="id29" stroke="none" /><text fill="#e1ed5e" style="font-size:6.75px; font-family:Arial;" text-anchor="middle"><textPath startOffset="22.145653131862474" xlink:href="#id29">May</textPath></text><line stroke="#e1ed5e" stroke-width="0.3" x1="143.1302829299769" x2="145.66735839644613" y1="173.24464959558577" y2="177.55315839532614" /><path d="M 143.63769802327073 174.10635135553383 a86.0,86.0 0 0,1 -40.68552437913181,11.842963189579606" fill="none" id="id30" stroke="none" /><text fill="#e1ed5e" style="font-size:6.75px; font-family:Arial;" text-anchor="middle"><textPath startOffset="21.407464694133747" xlink:href="#id30">June</textPath></text><line stroke="#e1ed5e" stroke-width="0.3" x1="101.45913802915013" x2="101.54496967792366" y1="184.9874750549273" y2="189.98673829345242" /><path d="M 101.47630435890484 185.9873277026323 a86.0,86.0 0 0,1 -42.54439059252881,-10.42667462771756" fill="none" id="id31" stroke="none" /><text fill="#e1ed5e" style="font-size:6.75px; font-family:Arial;" text-anchor="middle"><textPath startOffset="22.145653131862474" xlink:href="#id31">July</textPath></text><path d="M 96.05791012581884 120.62667999033965 l -3.5781692197139625 18.722493347936105 a40.06134969325153,40.06134969325153 0 0,0 -0.6743727576636995,-0.1348934384433288 l 3.89903846290862 -18.658310512829917" fill="#ffb811" stroke="none" /><line stroke="#e1ed5e" stroke-width="0.3" x1="58.13341422392154" x2="55.67067388415222" y1="173.97424548756322" y2="178.32567169271397" /><path d="M 57.64086615596768 174.84453072859336 a86.0,86.0 0 0,1 -31.369924170532247,-30.572349798747897" fill="none" id="id32" stroke="none" /><text fill="#e1ed5e" style="font-size:6.75px; font-family:Arial;" text-anchor="middle"><textPath startOffset="22.145653131862474" xlink:href="#id32">August</textPath></text><line stroke="#e1ed5e" stroke-width="0.3" x1="26.387840678322732" x2="22.057713659400548" y1="142.50000000000003" y2="145.00000000000006" /><path d="M 25.521815274538298 143.00000000000003 a86.0,86.0 0 0,1 -11.493303480769221,-40.785679425670985" fill="none" id="id33" stroke="none" /><text fill="#e1ed5e" style="font-size:6.75px; font-family:Arial;" text-anchor="middle"><textPath startOffset="21.40746469413373" xlink:href="#id33">September</textPath></text><path d="M 79.06263194458094 101.62068470465958 l -32.22874445924717 2.494708649971166 a53.32515337423313,53.32515337423313 0 0,0 -0.06281205070208752,-0.9132734318581501 l 32.266820471114315 -1.9410917939586727" fill="#97ff23" stroke="none" /><line stroke="#e1ed5e" stroke-width="0.3" x1="15.003131293944662" x2="10.003315487706104" y1="100.72959589197737" y2="100.7725132973878" /><path d="M 14.003168132696942 100.73817937305945 a86.0,86.0 0 0,1 10.791469493833604,-42.45332614584628" fill="none" id="id34" stroke="none" /><text fill="#e1ed5e" style="font-size:6.75px; font-family:Arial;" text-anchor="middle"><textPath startOffset="22.145653131862435" xlink:href="#id34">October</textPath></text><path d="M 79.83685265289637 94.1308016681162 l -6.726939605723737 -1.958114079757902 a28.006134969325153,28.006134969325153 0 0,0 0.13832854197587804,-0.4604507273176592 l 6.6923347437442295 2.0733024106662845" fill="#ff0000" stroke="none" /><line stroke="#e1ed5e" stroke-width="0.3" x1="26.387840678322718" x2="22.05771365940052" y1="57.49999999999999" y2="54.99999999999999" /><path d="M 25.521815274538284 56.99999999999999 a86.0,86.0 0 0,1 29.574782752854787,-30.34633250058573" fill="none" id="id35" stroke="none" /><text fill="#e1ed5e" style="font-size:6.75px; font-family:Arial;" text-anchor="middle"><textPath startOffset="21.40746469413373" xlink:href="#id35">November</textPath></text><path d="M 83.42222388311158 87.10902102172516 l -23.377424865971474 -18.178426972869616 a50.61349693251533,50.61349693251533 0 0,0 0.5392351584011441,-0.6813060072170218 l 23.06192327692877 18.577052924001322" fill="#b9ff1f" stroke="none" /><path d="M 83.8745106332314 86.54754324733833 l -14.27880755789531 -11.911889108185084 a39.59509202453988,39.59509202453988 0 0,0 0.43989286798863075,-0.5181926923957234 l 14.072220126399566 12.155248583030364" fill="#ffb110" stroke="none" /><path d="M 84.10781606972428 86.27271002978789 l -14.963630969114412 -12.925228037976526 a40.77300613496932,40.77300613496932 0 0,0 0.4620725880605299,-0.5257537837178203 l 14.73954731709529 13.180194099505647" fill="#ffc212" stroke="none" /><path d="M 84.58840730492382 85.73525988315684 l -19.580781954684863 -18.12367945315539 a47.68098159509202,47.68098159509202 0 0,0 0.5611464972835807,-0.5959181341838327 l 19.266779623665013 18.457139047283732" fill="#deff1b" stroke="none" /><path d="M 85.34317274990677 84.96080404539775 l -42.4397146623719 -43.54688597839326 a81.80674846625766,81.80674846625766 0 0,0 1.0141213079839764,-0.9715052726965809 l 41.68592086852262 44.26900338139541" fill="#4ae8ff" stroke="none" /><line stroke="#e1ed5e" stroke-width="0.3" x1="56.869717070023135" x2="54.33264160355391" y1="26.7553504044142" y2="22.446841604673864" /><path d="M 56.362301976729285 25.89364864446614 a86.0,86.0 0 0,1 42.16139366436587,-11.88097634709845" fill="none" id="id36" stroke="none" /><text fill="#e1ed5e" style="font-size:6.75px; font-family:Arial;" text-anchor="middle"><textPath startOffset="22.145653131862474" xlink:href="#id36">December</textPath></text><path d="M 91.26138138417902 80.90454125486306 l -26.215855847462933 -57.286376235410835 a84.0,84.0 0 0,0 1.3163463885775248,-0.5887849963606175 l 25.22859605602979 57.7279649826813" fill="#4dd2ff" stroke="none" /></svg>